Description

Poster: http://cdn.piczend.com/image/a36khxiup8zle0exedj2lhtz8.jpeg
Release date: 2012
Genre: Comedy, Drama
Plot: A charismatic, crazy hothead transforms a family's life when she becomes the nanny of five girls whose mother has cracked from her husband's political ambitions and his infidelity.
--------------------------------

Runtime: 1 h 56 min
Rating: 6.2/10
Votes: 428
Writer(s)/Director(s): P.J. Hogan/P.J. Hogan
Actors: Liev Schreiber, Toni Collette, Anthony LaPaglia, Caroline Goodall
Trailer: http://www.imdb.com/video/imdb/vi1152624409/

Screenshots:
 
http://cdn.piczend.com/image/ur9l6ipbwwqo9iy14vnugvq37.jpeg
 
http://cdn.piczend.com/image/yuqkp7u77f4fuvsgc6gku7fgl.jpeg
 
http://cdn.piczend.com/image/pngghe41lfhizegv8mgu4nw0t.jpeg
 
http://cdn.piczend.com/image/7lqcscs58pcdktopbxff31ef7.jpeg


Mediainfo:
General
Complete name : 	Mental (2012) BRRip 270p [Zend]/Mental (2012) BRRip 270p [Zend].mp4
Format : 	MPEG-4
Format profile : 	Base Media
Codec ID : 	isom
File size : 	1.31 GiB
Duration : 	1h 55mn
Overall bit rate : 	1 621 Kbps
Writing application : 	Lavf53.21.1

Video
ID : 	1
Format : 	AVC
Format/Info : 	Advanced Video Codec
Format profile : 	Main@L2.1
Format settings, CABAC : 	Yes
Format settings, ReFrames : 	3 frames
Codec ID : 	avc1
Codec ID/Info : 	Advanced Video Coding
Duration : 	1h 55mn
Bit rate : 	1 500 Kbps
Width : 	640 pixels
Height : 	270 pixels
Display aspect ratio : 	2.40:1
Original display aspect ratio : 	2.40:1
Frame rate mode : 	Constant
Frame rate : 	23.976 fps
Color space : 	YUV
Chroma subsampling : 	4:2:0
Bit depth : 	8 bits
Scan type : 	Progressive
Bits/(Pixel*Frame) : 	0.362
Stream size : 	1.20 GiB (92%)
Writing library : 	x264 core 123 r2189 35cf912
Encoding settings : 	cabac=1 / ref=3 / deblock=1:0:0 / analyse=0x1:0x111 / me=hex / subme=7 / psy=1 / psy_rd=1.00:0.00 / mixed_ref=0 / me_range=16 / chroma_me=1 / trellis=1 / 8x8dct=0 / cqm=0 / deadzone=21,11 / fast_pskip=1 / chroma_qp_offset=-2 / threads=6 / sliced_threads=0 / nr=0 / decimate=1 / interlaced=0 / bluray_compat=0 / constrained_intra=0 / bframes=3 / b_pyramid=0 / b_adapt=1 / b_bias=0 / direct=1 / weightb=0 / open_gop=1 / weightp=2 / keyint=250 / keyint_min=23 / scenecut=40 / intra_refresh=0 / rc_lookahead=40 / rc=abr / mbtree=1 / bitrate=1500 / ratetol=1.0 / qcomp=0.60 / qpmin=0 / qpmax=69 / qpstep=4 / ip_ratio=1.25 / aq=1:1.00

Audio
ID : 	2
Format : 	MPEG Audio
Format version : 	Version 1
Format profile : 	Layer 3
Mode : 	Joint stereo
Mode extension : 	MS Stereo
Codec ID : 	6B
Duration : 	1h 55mn
Bit rate mode : 	Constant
Bit rate : 	128 Kbps
Channel(s) : 	2 channels
Sampling rate : 	44.1 KHz
Compression mode : 	Lossy
Delay relative to video : 	42ms
Stream size : 	106 MiB (8%)
Writing library : 	LAME3.99.5
